# xmcd CD database file
#
# Track frame offsets:
#	150
#	10997
#	27619
#	48060
#	72583
#	92211
#	107054
#	140138
#	157241
#	192617
#	211026
#	245214
#	256150
#	282192
#
# Disc length: 4056 seconds
#
# Revision: 1
# Processed by: cddbd v1.5.1PL2 Copyright (c) Steve Scherf et al.
# Submitted via: CDex 1.40Beta8
#
DISCID=d80fd60e
DTITLE=Jaques Berndorf and Christian Willisohn - Otto Krause hat den Blues
DYEAR=2003
DGENRE=Blues
TTITLE0=Willisohn, Christian - Otto's Blues
TTITLE1=Berndorf, Jacques - Die Vorgeschichte
TTITLE2=Willisohn, Christian - Black Day
TTITLE3=Berndorf, Jacques - Wunderbare Mamma
TTITLE4=Berndorf, Jacques - Kirmes
TTITLE5=Willisohn, Christian - Marriage Blues
TTITLE6=Berndorf, Jacques - Hochzeit
TTITLE7=Willisohn, Christian, Mayer, Alexandra - Hold On, I'm Waiting for You
TTITLE8=Berndorf, Jacques - Speed
TTITLE9=Willisohn, Christian, Mayer, Alexandra - No More Tears in Vain
TTITLE10=Berndorf, Jacques - Schwäne, Enten, Fische
TTITLE11=Willisohn, Christian, Mayer, Alexandra - Little Fish
TTITLE12=Berndorf, Jacques - Der Bluff
TTITLE13=Willisohn, Christian, Mayer, Alexandra - We Can Make it Up to Heaven
EXTD=YEAR: 2003 ID3G: 0
EXTT0=
EXTT1=
EXTT2=
EXTT3=
EXTT4=
EXTT5=
EXTT6=
EXTT7=
EXTT8=
EXTT9=
EXTT10=
EXTT11=
EXTT12=
EXTT13=
PLAYORDER=
